<?xml version="1.0" standalone="no"?>
<!DOCTYPE svg PUBLIC "-//W3C//DTD SVG 20010904//EN"
 "http://www.w3.org/TR/2001/REC-SVG-20010904/DTD/svg10.dtd">
<svg version="1.0" xmlns="http://www.w3.org/2000/svg"
 width="666.000000pt" height="340.000000pt" viewBox="0 0 666.000000 340.000000"
 preserveAspectRatio="xMidYMid meet">
<g transform="translate(0.000000,340.000000) scale(0.100000,-0.100000)"
fill="#000000" stroke="none">
<path d="M832 3378 c-7 -7 -12 -20 -12 -29 0 -9 72 -238 160 -509 88 -271 160
-498 160 -505 0 -13 -86 -52 -94 -44 -2 2 -85 211 -184 464 -99 253 -188 479
-197 503 -11 28 -25 44 -40 48 -31 8 -65 -12 -65 -37 0 -11 75 -250 166 -531
184 -566 176 -521 94 -548 -22 -7 -43 -11 -46 -8 -2 3 -95 237 -206 519 -110
283 -209 523 -219 534 -25 26 -73 11 -77 -25 -2 -19 215 -708 338 -1073 9 -27
7 -29 -37 -48 -25 -11 -49 -16 -53 -12 -3 4 -98 242 -209 528 -112 286 -211
529 -222 540 -15 15 -24 17 -46 9 -17 -6 -29 -18 -31 -32 -3 -21 334 -1074
364 -1137 23 -50 75 -106 110 -121 19 -8 66 -14 107 -14 133 0 223 -44 268
-132 11 -21 38 -91 61 -156 234 -672 779 -1187 1494 -1411 347 -109 643 -147
1077 -138 219 4 287 9 412 31 548 93 959 300 1326 666 233 232 393 463 587
845 46 92 64 110 264 269 330 263 474 429 527 613 137 465 -28 854 -384 905
-292 41 -617 -204 -733 -554 -63 -190 -66 -308 -12 -539 60 -257 72 -325 77
-444 5 -119 5 -121 -29 -210 -275 -708 -974 -1193 -1883 -1306 -129 -16 -481
-16 -610 0 -438 54 -815 199 -1130 433 -316 235 -550 545 -701 933 -79 205
-72 305 32 413 59 61 94 136 94 200 0 25 -67 210 -206 567 -114 292 -212 536
-217 543 -12 15 -59 16 -75 0z"/>
<path d="M2503 3346 c-155 -50 -241 -173 -231 -330 6 -90 39 -157 108 -219 67
-61 129 -81 229 -75 122 7 216 69 268 176 37 76 39 191 5 268 -28 62 -102 136
-162 163 -61 27 -163 35 -217 17z"/>
<path d="M3983 3343 c-103 -35 -187 -119 -213 -213 -15 -54 -12 -151 7 -206
23 -67 120 -164 187 -187 139 -47 296 2 376 118 90 130 70 308 -46 415 -86 79
-207 108 -311 73z"/>
</g>
</svg>
