<?xml version="1.0" ?><!DOCTYPE svg  PUBLIC '-//W3C//DTD SVG 1.1//EN'  'http://www.w3.org/Graphics/SVG/1.1/DTD/svg11.dtd'><svg enable-background="new 0 0 91 91" height="91px" id="Layer_1" version="1.1" viewBox="0 0 91 91" width="91px" xml:space="preserve" xmlns="http://www.w3.org/2000/svg" xmlns:xlink="http://www.w3.org/1999/xlink"><g><g><g><g><path d="M54.073,66.896l12.577,7.896c0,0-2.232,8.901,3.871,12.239c6.106,3.346,13.698-2.302,10.851-9.083      c0,0,9.563-0.37,6.68-8.28c-2.912-7.985-13.889-4.14-13.889-4.14l-11.254-8.807" fill="#FFFFFF"/><path d="M74.359,90.272c-1.682,0-3.378-0.414-4.923-1.26c-5.812-3.182-5.687-9.969-5.274-13.116l-11.29-7.088      c-1.056-0.663-1.375-2.058-0.712-3.113s2.057-1.374,3.112-0.711l12.577,7.895c0.828,0.521,1.227,1.513,0.99,2.462      c-0.016,0.066-1.715,7.258,2.767,9.711c2.457,1.346,5.053,0.599,6.536-0.738c0.754-0.679,2.374-2.574,1.148-5.491      c-0.287-0.682-0.222-1.462,0.178-2.088c0.396-0.624,1.076-1.013,1.815-1.042c0.9-0.043,3.714-0.489,4.684-1.946      c0.5-0.752,0.488-1.864-0.037-3.305c-2.109-5.784-10.664-2.906-11.027-2.78c-0.724,0.251-1.53,0.118-2.133-0.354l-11.253-8.81      c-0.981-0.768-1.155-2.188-0.387-3.169c0.77-0.983,2.188-1.153,3.171-0.387l10.323,8.082c4.809-1.297,12.881-1.446,15.548,5.871      c1.305,3.581,0.471,5.986-0.461,7.375c-1.388,2.066-3.701,3.048-5.535,3.515c0.351,2.939-0.705,5.804-3.011,7.882      C79.261,89.386,76.824,90.272,74.359,90.272z" fill="#434B56"/></g><g><path d="M61.914,49.714c2.335,2.878,1.73,5.837,0.459,8.146c-1.397,2.545-3.603,4.301-3.603,4.301      c-4.213,6.935-9.921,6.548-15.431,4.849c-5.51-1.705-24.847-11.243-24.847-11.243C-12.579,36.28,11.477,9.808,11.477,9.808      S25.158-5.835,43.914,8.88C60.652,22.02,52.302,37.884,61.914,49.714z" fill="#B08C7E"/><path d="M49.23,70.313c-1.94,0-4.022-0.366-6.556-1.147c-5.619-1.738-24.384-10.98-25.179-11.374l-0.202-0.112      C7.403,51.476,1.779,43.897,0.578,35.154C-1.394,20.802,9.348,8.793,9.805,8.29c0.258-0.295,7.102-7.975,17.949-7.975      c5.906,0,11.813,2.284,17.554,6.789c10.391,8.158,11.795,17.465,13.035,25.677c0.854,5.658,1.662,11.004,5.323,15.511      c2.518,3.102,2.761,6.887,0.687,10.658c-1.275,2.321-3.111,4.056-3.85,4.703C57.707,68.071,53.916,70.313,49.23,70.313z       M19.596,53.793c1.53,0.753,19.337,9.49,24.411,11.059c2.088,0.646,3.748,0.945,5.224,0.945c2.014,0,4.992-0.498,7.611-4.809      l0.208-0.344l0.315-0.251c0.014-0.01,1.88-1.528,3.03-3.62c1.571-2.855,0.618-4.584-0.235-5.636      c-4.437-5.461-5.375-11.675-6.281-17.685c-1.223-8.098-2.378-15.748-11.359-22.797c-4.927-3.865-9.896-5.827-14.766-5.827      c-8.751,0-14.525,6.406-14.582,6.47c-0.121,0.132-9.816,11.025-8.117,23.27C6.07,41.885,10.963,48.354,19.596,53.793z" fill="#434B56"/></g><path d="M20.111,17.738c-0.556,0-1.114-0.204-1.55-0.616c-0.906-0.855-0.949-2.285-0.091-3.192     c2.588-2.743,9.848-6.589,18.791-1.509c1.083,0.616,1.464,1.995,0.848,3.078c-0.616,1.085-1.995,1.464-3.078,0.848     c-8.13-4.615-13.226,0.63-13.277,0.683C21.309,17.499,20.709,17.738,20.111,17.738z" fill="#FFFFFF"/><path d="M41.199,21.315c-1.512,0-2.743-1.23-2.743-2.745c0-1.513,1.231-2.745,2.743-2.745     c1.513,0,2.744,1.232,2.744,2.745C43.943,20.085,42.712,21.315,41.199,21.315z" fill="#FFFFFF"/></g></g></g></svg>