<?xml version="1.0" ?><!DOCTYPE svg  PUBLIC '-//W3C//DTD SVG 1.1//EN'  'http://www.w3.org/Graphics/SVG/1.1/DTD/svg11.dtd'><svg enable-background="new 0 0 91 91" height="91px" id="Layer_1" version="1.1" viewBox="0 0 91 91" width="91px" xml:space="preserve" xmlns="http://www.w3.org/2000/svg" xmlns:xlink="http://www.w3.org/1999/xlink"><g><g><g><path d="M35.773,32.992c-2.327,2.361-2.321,6.18,0.025,8.529c0.003,0.004,0.003,0.008,0.006,0.01     c0.001,0.002,0.003,0.002,0.005,0.004c2.575,2.582,2.935,6.531,1.118,9.512h5.125c2.129-2.371,2.071-6.03-0.211-8.318     c-0.007-0.008-0.01-0.018-0.017-0.023c-0.005-0.006-0.013-0.008-0.018-0.014c-2.991-3.022-2.983-7.916,0.026-10.926     c0.012-0.012,0.028-0.018,0.04-0.027c2.331-2.355,2.321-6.176-0.031-8.533c-0.01-0.012-0.013-0.025-0.023-0.038     c-0.007-0.006-0.017-0.008-0.023-0.016c-2.562-2.611-2.894-7.843-1.021-11.164l-5.027-0.177     c-2.284,2.383-2.271,7.859,0.051,10.183c0.031,0.032,0.061,0.065,0.087,0.101c0.006,0.008,0.008,0.02,0.013,0.027     c2.914,3.032,2.896,7.859-0.08,10.839C35.806,32.974,35.787,32.979,35.773,32.992z" fill="#FAE58F"/><path d="M34.826,51.047c2.125-2.371,2.067-6.03-0.215-8.318c-0.003-0.004-0.003-0.008-0.007-0.01     c-0.426-0.429-0.774-0.898-1.08-1.392c-0.105,0.047-0.221,0.077-0.343,0.077H23.084l-6.333,9.644H34.826z" fill="#E4E4E6"/><path d="M68.491,51.047l-6.335-9.644H50.149c0.025,0.025,0.041,0.053,0.063,0.077     c0.01,0.01,0.01,0.021,0.02,0.031c0.011,0.01,0.026,0.012,0.038,0.024c2.573,2.583,2.936,6.533,1.118,9.512H68.491z" fill="#E4E4E6"/><path d="M43.029,21.996c0.008,0.008,0.013,0.02,0.021,0.027c3.005,3.028,3.007,7.927-0.003,10.938     c-0.012,0.012-0.028,0.016-0.04,0.026c-2.334,2.361-2.329,6.184,0.021,8.535c0.003,0.004,0.005,0.01,0.01,0.014     c2.577,2.583,2.937,6.531,1.118,9.512h5.125c2.127-2.371,2.07-6.028-0.212-8.318c-0.004-0.004-0.008-0.008-0.013-0.01     c-3.017-3.02-3.017-7.936,0-10.954c0.017-0.016,0.036-0.02,0.05-0.033c2.324-2.357,2.312-6.17-0.037-8.529     c-0.002-0.002-0.004-0.004-0.004-0.006c-0.002-0.004-0.007-0.006-0.009-0.008c-2.532-2.535-2.905-7.607-1.173-10.952     l-5.095-0.179c-2.078,2.487-2.015,7.68,0.239,9.935V21.996z" fill="#F9BA8F"/><polygon fill="#E4E4E6" points="71.816,33.594 63.751,40.684 70.237,50.564 81.195,40.22    "/><path d="M25.459,86.559H51.69c6.603,0,6.703-0.332,8.401-5.867l8.854-27.953H16.288L25.459,86.559z" fill="#B1E1F8"/><polygon fill="#E4E4E6" points="13.421,33.594 4.045,40.22 15.03,50.584 21.517,40.707    "/></g><g><path d="M34.978,24.886c-0.526,0-1.054-0.179-1.485-0.549c-0.062-0.053-0.121-0.11-0.177-0.169     c-3.534-3.581-3.521-9.376,0.037-12.945c0.891-0.893,2.336-0.895,3.229-0.006c0.893,0.891,0.895,2.336,0.004,3.23     c-1.797,1.801-1.797,4.732-0.001,6.532l0,0c0.047,0.047,0.093,0.096,0.136,0.147c0.714,0.839,0.732,2.098-0.008,2.963     C36.261,24.616,35.622,24.886,34.978,24.886z" fill="#434B56"/><path d="M34.991,34.646c-0.584,0-1.168-0.222-1.614-0.668c-0.892-0.891-0.893-2.336-0.001-3.229     c1.792-1.795,1.787-4.725-0.014-6.529c-0.89-0.893-0.888-2.34,0.005-3.23c0.893-0.889,2.339-0.887,3.229,0.006     c3.574,3.586,3.578,9.408,0.01,12.98C36.16,34.421,35.575,34.646,34.991,34.646z" fill="#434B56"/><path d="M34.979,44.414c-0.584,0-1.168-0.224-1.614-0.668c-0.01-0.01-0.02-0.02-0.03-0.032     c-3.555-3.58-3.549-9.39,0.019-12.965c0.891-0.893,2.337-0.895,3.229-0.002c0.893,0.891,0.894,2.336,0.003,3.229     c-1.797,1.801-1.797,4.729-0.001,6.53c0.03,0.031,0.06,0.061,0.088,0.092c0.813,0.896,0.786,2.283-0.079,3.148     C36.147,44.189,35.563,44.414,34.979,44.414z" fill="#434B56"/><path d="M34.991,54.176c-0.583,0-1.167-0.223-1.613-0.668c-0.893-0.893-0.894-2.336-0.003-3.229     c1.793-1.799,1.788-4.729-0.013-6.536c-0.89-0.893-0.888-2.338,0.005-3.229c0.893-0.889,2.339-0.889,3.229,0.006     c3.574,3.584,3.579,9.409,0.01,12.985C36.161,53.951,35.576,54.176,34.991,54.176z" fill="#434B56"/><path d="M42.21,24.886c-0.633,0-1.255-0.262-1.697-0.753c-3.504-3.584-3.48-9.353,0.071-12.912     c0.89-0.893,2.336-0.895,3.229-0.002c0.893,0.891,0.894,2.336,0.003,3.229c-1.798,1.801-1.799,4.73,0,6.532h0     c0.132,0.132,0.248,0.279,0.344,0.438c0.634,1.04,0.338,2.404-0.685,3.085C43.085,24.762,42.646,24.886,42.21,24.886z" fill="#434B56"/><path d="M42.218,34.646c-0.584,0-1.169-0.224-1.615-0.668c-0.891-0.893-0.891-2.338,0-3.23     c1.795-1.793,1.791-4.723-0.011-6.527c-0.891-0.893-0.89-2.338,0.003-3.229c0.892-0.891,2.338-0.889,3.229,0.004     c3.579,3.584,3.583,9.408,0.008,12.982C43.386,34.421,42.802,34.646,42.218,34.646z" fill="#434B56"/><path d="M42.21,44.414c-0.632,0-1.25-0.264-1.688-0.743c-3.514-3.586-3.493-9.363,0.063-12.922     c0.891-0.893,2.337-0.893,3.229-0.002c0.892,0.893,0.893,2.338,0.001,3.229c-1.799,1.801-1.799,4.73,0,6.532     c0.143,0.142,0.275,0.314,0.375,0.491c0.625,1.093,0.245,2.489-0.85,3.115C42.984,44.317,42.594,44.414,42.21,44.414z" fill="#434B56"/><path d="M42.218,54.176c-0.584,0-1.168-0.223-1.614-0.668c-0.892-0.893-0.892-2.338,0-3.229     c1.796-1.799,1.792-4.729-0.011-6.534c-0.891-0.893-0.89-2.338,0.003-3.229c0.892-0.891,2.338-0.891,3.229,0.002     c3.579,3.586,3.583,9.411,0.009,12.989C43.387,53.951,42.802,54.176,42.218,54.176z" fill="#434B56"/><path d="M49.439,24.888c-0.252,0-0.509-0.043-0.759-0.132c-0.229-0.081-0.442-0.197-0.635-0.344     c-0.083-0.063-0.161-0.131-0.236-0.206c-3.575-3.579-3.575-9.402,0-12.985c0.891-0.893,2.336-0.895,3.229-0.002     c0.893,0.891,0.895,2.336,0.002,3.229c-1.777,1.781-1.797,4.667-0.059,6.471c0.654,0.6,0.926,1.555,0.611,2.446     C51.262,24.302,50.381,24.888,49.439,24.888z" fill="#434B56"/><path d="M49.447,34.646c-0.584,0-1.168-0.224-1.614-0.668c-0.891-0.893-0.891-2.338,0-3.23     c1.795-1.793,1.789-4.721-0.012-6.529c-0.891-0.893-0.889-2.338,0.006-3.229c0.893-0.891,2.338-0.887,3.229,0.006     c3.574,3.588,3.578,9.412,0.006,12.982C50.617,34.421,50.031,34.646,49.447,34.646z" fill="#434B56"/><path d="M49.439,44.414c-0.291,0-0.584-0.055-0.869-0.173c-0.171-0.069-0.334-0.161-0.485-0.271     c-0.099-0.071-0.188-0.149-0.275-0.236c-3.577-3.58-3.577-9.404,0-12.984c0.891-0.893,2.338-0.893,3.229-0.002     c0.893,0.893,0.893,2.338,0.002,3.229c-1.775,1.779-1.799,4.658-0.067,6.463c0.694,0.629,0.954,1.647,0.578,2.562     C51.188,43.88,50.336,44.414,49.439,44.414z" fill="#434B56"/><path d="M49.447,54.176c-0.584,0-1.168-0.223-1.614-0.668c-0.891-0.893-0.891-2.338,0-3.229     c1.795-1.797,1.789-4.727-0.012-6.536c-0.891-0.893-0.889-2.34,0.006-3.229c0.893-0.893,2.338-0.889,3.229,0.006     c3.574,3.588,3.578,9.411,0.008,12.987C50.617,53.951,50.033,54.176,49.447,54.176z" fill="#434B56"/><path d="M88.619,15.118c-0.025,0-0.053,0-0.081-0.002l-62.416-2.2c-1.26-0.043-2.246-1.101-2.201-2.361     c0.044-1.26,1.1-2.253,2.362-2.202l62.416,2.2c1.259,0.045,2.246,1.103,2.2,2.363C90.856,14.146,89.844,15.118,88.619,15.118z" fill="#434B56"/><path d="M26.201,10.043c-1.198,0-2.204-0.932-2.277-2.145c-0.077-1.258,0.882-2.34,2.141-2.417l62.415-3.787     c1.265-0.073,2.342,0.883,2.418,2.141c0.077,1.258-0.883,2.34-2.141,2.417l-62.416,3.787     C26.294,10.043,26.247,10.043,26.201,10.043z" fill="#434B56"/><path d="M51.461,89.686H22.834L11.968,49.607h61.019l-10.142,32.02C60.812,88.258,59.604,89.686,51.461,89.686z      M26.328,85.119h25.133c2.648,0,4.556-0.107,5.245-0.631c0.602-0.457,1.068-1.902,1.779-4.221l8.265-26.092H17.937L26.328,85.119     z" fill="#434B56"/><path d="M14.952,54.176c-0.58,0-1.141-0.221-1.567-0.623L0.916,41.785c-0.498-0.47-0.759-1.138-0.71-1.821     c0.048-0.684,0.401-1.309,0.959-1.705l10.763-7.607c0.864-0.609,2.032-0.546,2.825,0.149l9.15,8.042     c0.854,0.751,1.026,2.017,0.401,2.967l-7.443,11.334c-0.371,0.564-0.972,0.936-1.643,1.016     C15.129,54.17,15.04,54.176,14.952,54.176z M6.079,40.379l8.46,7.982l4.859-7.398l-6.306-5.541L6.079,40.379z" fill="#434B56"/><path d="M69.828,54.176c-0.088,0-0.177-0.006-0.265-0.016c-0.671-0.08-1.272-0.451-1.645-1.016L60.474,41.81     c-0.625-0.95-0.454-2.216,0.401-2.967l9.145-8.04c0.794-0.698,1.962-0.761,2.825-0.151l10.767,7.607     c0.561,0.396,0.912,1.021,0.961,1.705c0.048,0.683-0.212,1.351-0.711,1.821L71.396,53.553     C70.969,53.955,70.408,54.176,69.828,54.176z M65.379,40.963l4.862,7.4l8.457-7.984l-7.018-4.957L65.379,40.963z" fill="#434B56"/><path d="M69.868,54.176H14.952c-0.839,0-1.611-0.461-2.009-1.199c-0.399-0.74-0.36-1.637,0.101-2.338     l7.445-11.335c0.422-0.643,1.14-1.028,1.908-1.028h4.089c1.261,0,2.283,1.022,2.283,2.283s-1.022,2.283-2.283,2.283h-2.857     l-4.446,6.767h46.455l-4.445-6.767h-4.039c-1.26,0-2.282-1.022-2.282-2.283s1.022-2.283,2.282-2.283h5.271     c0.769,0,1.486,0.388,1.909,1.03l7.442,11.333c0.46,0.701,0.499,1.6,0.1,2.338C71.479,53.715,70.707,54.176,69.868,54.176z" fill="#434B56"/></g></g></g></svg>