<?xml version="1.0" ?><!DOCTYPE svg  PUBLIC '-//W3C//DTD SVG 1.1//EN'  'http://www.w3.org/Graphics/SVG/1.1/DTD/svg11.dtd'><svg enable-background="new 0 0 91 91" height="91px" id="Layer_1" version="1.1" viewBox="0 0 91 91" width="91px" xml:space="preserve" xmlns="http://www.w3.org/2000/svg" xmlns:xlink="http://www.w3.org/1999/xlink"><g><g><g><path d="M33.231,35.435C31.863,45.7,21.726,50.429,10.07,53.249l3.214-6.187l-5.622-3.749l2.942-7.322     l-5.909-4.93l3.236-6.09l-5.701-4.079c11.653-2.823,21.877-3.967,28.744,5.242" fill="#FAE58F"/><path d="M10.07,55.479c-0.676,0-1.328-0.307-1.756-0.854c-0.54-0.688-0.628-1.63-0.225-2.406l2.294-4.408     L6.425,45.17c-0.88-0.586-1.228-1.708-0.834-2.688l2.338-5.816l-4.663-3.89c-0.811-0.676-1.036-1.827-0.542-2.76l2.319-4.366     l-4.11-2.942c-0.711-0.508-1.059-1.382-0.893-2.239c0.167-0.857,0.816-1.538,1.666-1.743c11.369-2.754,23.13-4.554,31.058,6.077     c0.738,0.988,0.534,2.386-0.456,3.123c-0.985,0.736-2.386,0.532-3.122-0.456c-4.931-6.615-11.801-7.337-21.576-5.471l1.618,1.159     c0.911,0.65,1.197,1.874,0.672,2.861l-2.384,4.492l4.517,3.769c0.744,0.62,1.001,1.648,0.642,2.546l-2.268,5.639l4.114,2.744     c0.947,0.632,1.268,1.875,0.744,2.885l-0.857,1.646c10.416-3.284,15.729-7.983,16.611-14.597     c0.161-1.222,1.274-2.083,2.505-1.917c1.222,0.162,2.079,1.285,1.917,2.505c-1.687,12.666-14.989,17.304-24.848,19.689     C10.42,55.459,10.245,55.479,10.07,55.479z" fill="#434B56"/></g><g><path d="M33.231,35.435c5.916,8.504,17.091,8.064,28.745,5.241l-5.691-4.033l3.28-5.906l-5.963-5.164l2.996-7.087     l-5.668-3.937l3.206-6.234c-11.659,2.827-21.266,6.489-23.157,17.819" fill="#FAE58F"/><path d="M48.998,44.738c-6.711,0-13.308-1.86-17.598-8.029c-0.705-1.011-0.456-2.402,0.557-3.105     c1.011-0.704,2.402-0.456,3.105,0.557c3.868,5.558,10.582,7.282,21.457,5.383l-1.525-1.08c-0.928-0.658-1.213-1.909-0.659-2.904     l2.399-4.323l-4.592-3.977c-0.73-0.633-0.971-1.664-0.594-2.555l2.29-5.419l-4.181-2.903c-0.918-0.638-1.224-1.858-0.711-2.853     l0.907-1.767c-9.542,2.82-15.316,6.605-16.672,14.74c-0.204,1.216-1.356,2.036-2.569,1.833c-1.214-0.202-2.037-1.352-1.833-2.567     C30.96,12.689,42.243,8.904,53.609,6.146c0.846-0.206,1.739,0.102,2.279,0.788s0.63,1.624,0.23,2.4l-2.312,4.497l4.063,2.822     c0.867,0.602,1.193,1.729,0.782,2.701l-2.365,5.594l4.736,4.102c0.799,0.692,1.003,1.847,0.49,2.77l-2.31,4.159l4.06,2.878     c0.715,0.505,1.066,1.381,0.901,2.24S63.35,42.64,62.5,42.845C58.442,43.827,53.692,44.738,48.998,44.738z" fill="#434B56"/></g><path d="M25.121,34.708c-1.007,0-1.919-0.686-2.167-1.707c-0.29-1.198,0.446-2.403,1.643-2.694l14.481-3.509    c1.197-0.291,2.404,0.445,2.694,1.643c0.291,1.198-0.445,2.404-1.643,2.694l-14.482,3.51    C25.47,34.687,25.293,34.708,25.121,34.708z" fill="#434B56"/><g><path d="M61.976,70.822c-3.743,9.659-14.713,11.863-26.704,11.863l4.584-5.263l-4.584-4.963l4.584-6.424     l-4.584-6.185l4.584-5.155l-4.584-5.305c11.991,0,22.194,1.29,26.704,11.86" fill="#F9BA8F"/><path d="M35.271,84.916c-0.874,0-1.669-0.511-2.031-1.307c-0.363-0.797-0.227-1.731,0.348-2.39l3.27-3.753     l-3.226-3.493c-0.718-0.778-0.792-1.95-0.177-2.812l3.641-5.101l-3.618-4.883c-0.63-0.85-0.577-2.021,0.125-2.811l3.286-3.693     l-3.307-3.823c-0.571-0.661-0.703-1.593-0.34-2.389c0.363-0.793,1.155-1.303,2.029-1.303c11.697,0,23.553,1.021,28.756,13.216     c0.482,1.134-0.044,2.443-1.178,2.928c-1.13,0.484-2.444-0.042-2.926-1.178c-3.238-7.586-9.74-9.903-19.68-10.393l1.301,1.502     c0.732,0.848,0.723,2.106-0.021,2.942l-3.38,3.8l3.505,4.73c0.576,0.778,0.586,1.837,0.023,2.625l-3.53,4.946l3.353,3.629     c0.772,0.838,0.792,2.121,0.044,2.98l-1.231,1.412c11.023-0.715,17.141-3.97,19.587-10.285c0.445-1.147,1.739-1.718,2.886-1.274     c1.149,0.446,1.72,1.737,1.276,2.887C59.441,83.538,45.417,84.916,35.271,84.916z" fill="#434B56"/></g><g><path d="M61.978,70.822c3.743,9.659,14.708,11.863,26.7,11.863l-4.581-5.263l4.581-4.963l-4.581-6.424     l4.581-6.185l-4.581-5.155l4.581-5.305c-11.992,0-22.19,1.29-26.7,11.86" fill="#F9BA8F"/><path d="M88.678,84.916c-10.146,0-24.166-1.378-28.781-13.288c-0.444-1.149,0.127-2.44,1.275-2.887     c1.149-0.443,2.44,0.125,2.887,1.274c2.447,6.315,8.563,9.57,19.585,10.285l-1.229-1.412c-0.748-0.859-0.729-2.143,0.042-2.979     l3.353-3.631l-3.529-4.946c-0.562-0.788-0.552-1.847,0.024-2.625l3.503-4.73l-3.378-3.8c-0.743-0.836-0.753-2.095-0.021-2.94     l1.299-1.504c-9.938,0.489-16.44,2.807-19.678,10.393c-0.482,1.136-1.795,1.662-2.926,1.178c-1.134-0.484-1.66-1.794-1.178-2.928     C65.129,48.181,76.983,47.16,88.678,47.16c0.874,0,1.666,0.51,2.028,1.303c0.363,0.794,0.231,1.728-0.34,2.387l-3.303,3.825     l3.282,3.693c0.701,0.789,0.753,1.961,0.124,2.811l-3.615,4.883l3.641,5.101c0.613,0.861,0.54,2.033-0.177,2.81l-3.227,3.495     l3.269,3.753c0.575,0.66,0.711,1.595,0.348,2.39C90.348,84.405,89.552,84.916,88.678,84.916z" fill="#434B56"/></g><path d="M69.691,68.269H54.793c-1.231,0-2.23-0.999-2.23-2.232c0-1.231,0.999-2.23,2.23-2.23h14.898    c1.232,0,2.231,0.999,2.231,2.23C71.923,67.27,70.924,68.269,69.691,68.269z" fill="#434B56"/></g></g></svg>