<?xml version="1.0" ?><!DOCTYPE svg  PUBLIC '-//W3C//DTD SVG 1.1//EN'  'http://www.w3.org/Graphics/SVG/1.1/DTD/svg11.dtd'><svg enable-background="new 0 0 91 91" height="91px" id="Layer_1" version="1.1" viewBox="0 0 91 91" width="91px" xml:space="preserve" xmlns="http://www.w3.org/2000/svg" xmlns:xlink="http://www.w3.org/1999/xlink"><g><g><g><path d="M31.909,51.363c-8.374,1.538-16.411-4.002-17.954-12.377c-1.537-8.375,4.003-16.411,12.377-17.952     c8.377-1.539,16.415,4.003,17.954,12.375C45.824,41.785,40.287,49.824,31.909,51.363z" fill="#FFFFFF"/><path d="M29.104,53.851c-8.506,0-15.798-6.082-17.343-14.461c-1.756-9.57,4.599-18.79,14.167-20.549     c1.061-0.196,2.138-0.294,3.206-0.294c8.51,0,15.804,6.08,17.344,14.459c0.854,4.637-0.151,9.328-2.827,13.211     c-2.676,3.882-6.702,6.489-11.339,7.34C31.252,53.751,30.175,53.851,29.104,53.851z M29.135,23.007     c-0.799,0-1.606,0.075-2.399,0.221c-7.15,1.316-11.898,8.205-10.584,15.355c1.152,6.26,6.601,10.805,12.953,10.805     c0.799,0,1.608-0.072,2.401-0.219c3.466-0.636,6.474-2.584,8.474-5.484c2-2.901,2.749-6.407,2.113-9.872     C40.942,27.552,35.492,23.007,29.135,23.007z" fill="#434B56"/></g><g><path d="M30.476,43.581c-4.076,0.751-7.983-1.95-8.735-6.026c-0.747-4.075,1.948-7.988,6.022-8.737     c4.077-0.749,7.99,1.946,8.741,6.021C37.251,38.917,34.553,42.83,30.476,43.581z" fill="#ACD263"/><path d="M29.11,45.938c-4.689,0-8.712-3.355-9.563-7.979c-0.97-5.279,2.536-10.362,7.813-11.334     c0.584-0.107,1.18-0.161,1.77-0.161c4.693,0,8.717,3.352,9.568,7.97c0.966,5.283-2.542,10.368-7.816,11.342     C30.296,45.882,29.7,45.938,29.11,45.938z M29.13,30.923c-0.321,0-0.644,0.031-0.963,0.088c-2.858,0.526-4.756,3.281-4.232,6.14     c0.461,2.505,2.638,4.324,5.175,4.324c0.321,0,0.644-0.029,0.962-0.088c2.86-0.528,4.762-3.285,4.238-6.147     C33.85,32.741,31.671,30.923,29.13,30.923z" fill="#434B56"/></g><g><path d="M26.369,41.975c-2.036,0.376-4.111-1.604-4.628-4.42c-0.517-2.816,0.713-5.404,2.753-5.778     c2.038-0.373,4.109,1.606,4.628,4.42C29.639,39.017,28.407,41.602,26.369,41.975z" fill="#F9BA8F"/><path d="M25.868,44.251c-2.993,0-5.651-2.647-6.32-6.295c-0.751-4.088,1.243-7.767,4.543-8.374     c3.287-0.598,6.485,2.2,7.225,6.21c0.411,2.236,0,4.457-1.128,6.09c-0.847,1.228-2.061,2.038-3.419,2.286     C26.475,44.225,26.171,44.251,25.868,44.251z M24.99,33.962c-0.688,0.117-1.375,1.441-1.055,3.187     c0.317,1.725,1.398,2.76,2.029,2.632c0.24-0.044,0.432-0.259,0.551-0.432c0.352-0.507,0.642-1.497,0.413-2.749     C26.615,34.902,25.583,33.962,24.99,33.962z" fill="#434B56"/></g><path d="M88.458,72.188c-0.214,0-0.431-0.03-0.646-0.094L2.047,46.243c-1.18-0.355-1.848-1.6-1.491-2.779    c0.355-1.18,1.6-1.85,2.778-1.493L89.1,67.822c1.182,0.355,1.848,1.601,1.492,2.779C90.302,71.566,89.416,72.188,88.458,72.188z" fill="#434B56"/><path d="M81.548,82.889c-0.693,0-1.375-0.321-1.812-0.926L28.999,11.646c-0.722-0.999-0.496-2.394,0.503-3.114    c0.999-0.721,2.394-0.494,3.114,0.503l50.737,70.317c0.723,0.998,0.496,2.394-0.503,3.113    C82.456,82.752,81.999,82.889,81.548,82.889z" fill="#434B56"/></g></g></svg>