<?xml version="1.0" ?><!DOCTYPE svg  PUBLIC '-//W3C//DTD SVG 1.1//EN'  'http://www.w3.org/Graphics/SVG/1.1/DTD/svg11.dtd'><svg enable-background="new 0 0 91 91" height="91px" id="Layer_1" version="1.1" viewBox="0 0 91 91" width="91px" xml:space="preserve" xmlns="http://www.w3.org/2000/svg" xmlns:xlink="http://www.w3.org/1999/xlink"><g><g><g><path d="M6.179,22.979c-0.414-0.413-0.779-0.861-1.118-1.324c-4.748,4.771-3.632,20.968,19.562,44.167     c13.13,13.127,23.178,18.305,29.297,20.334c6.615,2.199,12.172,1.909,14.865-0.773c-0.459-0.334-0.904-0.697-1.316-1.109     L6.179,22.979z" fill="#B08C7E"/><path d="M20.479,8.68c-1.751-1.752-4.081-2.715-6.554-2.715c-2.476,0-4.801,0.963-6.554,2.715     c-1.748,1.748-2.711,4.074-2.711,6.55c0,2.475,0.964,4.803,2.715,6.553l61.291,61.293c1.749,1.748,4.074,2.713,6.551,2.713     c2.475,0,4.803-0.965,6.549-2.713c3.613-3.615,3.615-9.494,0.008-13.109L20.479,8.68z" fill="#F9BA8F"/><path d="M85.869,54.211c-2.031-6.119-7.209-16.168-20.338-29.298C42.42,1.802,26.25,0.616,21.416,5.302     l-0.824,1.244c0.378,0.289,0.744,0.595,1.084,0.937l61.295,61.289c0.283,0.285,0.545,0.582,0.791,0.887l1.424-0.672     C87.783,66.258,88.041,60.754,85.869,54.211z" fill="#B08C7E"/></g><g><path d="M86.191,72.063c-0.584,0-1.168-0.223-1.615-0.668c-0.891-0.895-0.891-2.34,0-3.231     c1.773-1.772,2.817-6.226,0.434-13.407c-1.982-5.972-7.061-15.804-19.99-28.732C41.718,2.722,26.567,2.787,22.877,6.471     c-0.891,0.891-2.339,0.89-3.23-0.002c-0.894-0.893-0.892-2.34,0.002-3.232c5.842-5.833,23.605-5.44,48.601,19.555     c10.736,10.735,18.029,21.29,21.096,30.524c2.621,7.892,2.061,14.481-1.539,18.079C87.361,71.84,86.775,72.063,86.191,72.063z" fill="#434B56"/><path d="M62.484,90.85c-2.71,0-5.764-0.539-9.046-1.627c-9.234-3.066-19.788-10.361-30.523-21.096     C-2.083,43.125-2.475,25.363,3.363,19.525c0.892-0.893,2.338-0.893,3.231,0c0.891,0.893,0.891,2.339,0,3.231     C2.911,26.44,2.843,41.588,26.146,64.896c12.931,12.93,22.763,18.006,28.733,19.99c7.184,2.384,11.635,1.338,13.407-0.438     c0.892-0.892,2.339-0.894,3.231,0c0.893,0.891,0.895,2.338,0.002,3.23C69.418,89.783,66.293,90.85,62.484,90.85z" fill="#434B56"/><path d="M75.722,89.012c-3.312,0-6.425-1.289-8.764-3.629L5.667,24.089c-2.342-2.341-3.633-5.456-3.633-8.767     C2.033,12.01,3.324,8.898,5.664,6.558c2.343-2.342,5.456-3.632,8.768-3.632s6.424,1.291,8.768,3.632l61.295,61.288     c4.828,4.837,4.824,12.701-0.006,17.535C82.146,87.723,79.033,89.012,75.722,89.012z M14.431,7.495     c-2.09,0-4.058,0.815-5.537,2.295c-1.478,1.477-2.29,3.441-2.29,5.531c0,2.092,0.814,4.058,2.294,5.537l61.292,61.294     c1.477,1.477,3.441,2.291,5.532,2.291s4.056-0.814,5.532-2.293c3.053-3.053,3.055-8.02,0.006-11.073L19.968,9.79     C18.488,8.31,16.522,7.495,14.431,7.495z" fill="#434B56"/><g><path d="M53.543,53.762c-0.008-0.002-0.008-0.002-0.01,0c-0.002,0-0.002,0-0.002,0      c-5.213-0.004-9.455-4.246-9.46-9.454c-0.002-1.264,1.021-2.287,2.283-2.289h0.002c1.262,0,2.284,1.023,2.284,2.282      c0.004,2.69,2.192,4.882,4.882,4.89c0.631-0.016,1.195,0.229,1.637,0.669c0.891,0.894,0.891,2.339,0,3.231      C54.711,53.538,54.127,53.762,53.543,53.762z" fill="#FFFFFF"/><path d="M60.73,60.93c-0.002,0-0.002,0-0.002,0c-1.264-0.002-2.284-1.025-2.282-2.287      c0.002-2.687-2.196-4.877-4.899-4.885c-1.262-0.004-2.283-1.029-2.279-2.29c0.002-1.259,1.025-2.278,2.285-2.278      c0.002,0,0.004,0,0.006,0c5.219,0.012,9.463,4.256,9.457,9.459C63.014,59.909,61.992,60.93,60.73,60.93z" fill="#FFFFFF"/><path d="M67.898,68.117c-2.54,0-4.913-0.98-6.695-2.764c-1.787-1.785-2.771-4.162-2.771-6.689      c0-1.262,1.023-2.285,2.285-2.285l0,0c1.262,0,2.285,1.021,2.285,2.285c0.002,1.307,0.509,2.535,1.43,3.457      c0.921,0.92,2.146,1.426,3.453,1.426c0,0,0.002,0,0.004,0l0.02,4.57C67.904,68.117,67.902,68.117,67.898,68.117z" fill="#FFFFFF"/><path d="M75.094,75.291L75.094,75.291c-1.264-0.002-2.283-1.024-2.283-2.285      c0.002-2.689-2.201-4.885-4.906-4.889c-1.264-0.002-2.284-1.026-2.28-2.287c0.002-1.262,1.022-2.283,2.284-2.283      c0,0,0.002,0,0.004,0c5.223,0.01,9.471,4.254,9.467,9.461C77.379,74.269,76.355,75.291,75.094,75.291z" fill="#FFFFFF"/><path d="M24.822,25.043c-0.018,0-0.035,0-0.053,0c-5.196-0.026-9.415-4.259-9.415-9.46      c0-1.261,1.022-2.285,2.284-2.285c1.263,0,2.284,1.023,2.284,2.285c0,2.696,2.194,4.889,4.892,4.89      c0.352,0.012,0.708,0.081,1.031,0.241c1.129,0.564,1.585,1.937,1.021,3.065C26.467,24.581,25.66,25.043,24.822,25.043z" fill="#FFFFFF"/><path d="M32.015,32.211c-1.263,0-2.284-1.023-2.284-2.285c0-2.689-2.2-4.879-4.905-4.883      c-1.261-0.002-2.282-1.026-2.28-2.289c0.002-1.26,1.025-2.281,2.284-2.281c0.002,0,0.002,0,0.004,0      c5.22,0.008,9.466,4.249,9.466,9.453C34.3,31.188,33.277,32.211,32.015,32.211z" fill="#FFFFFF"/><path d="M39.187,39.403c-0.049,0-0.096-0.002-0.146-0.004c-2.477-0.032-4.803-1.012-6.558-2.765      c-1.789-1.786-2.772-4.163-2.772-6.691c0-1.261,1.023-2.285,2.284-2.285c1.263,0,2.284,1.023,2.284,2.285      c0,1.308,0.51,2.536,1.433,3.458s2.148,1.429,3.453,1.429c0-0.001,0.002-0.001,0.006,0c0.175,0,0.349,0.021,0.52,0.06      c1.228,0.287,1.999,1.517,1.712,2.746C41.157,38.69,40.222,39.403,39.187,39.403z" fill="#FFFFFF"/><path d="M46.375,46.57c-1.263,0-2.285-1.023-2.285-2.284c0-2.693-2.2-4.883-4.901-4.883      c-1.261,0-2.284-1.023-2.284-2.285c0-1.263,1.023-2.286,2.284-2.286c5.222,0,9.47,4.242,9.47,9.454      C48.659,45.547,47.637,46.57,46.375,46.57z" fill="#FFFFFF"/></g><g><path d="M52.254,55.433c-0.008,0-0.018,0-0.027,0c-5.202-0.014-9.437-4.252-9.44-9.454      c-0.002-1.261,1.019-2.287,2.282-2.287c0,0,0,0,0.002,0c1.262,0,2.283,1.021,2.285,2.283c0.002,2.691,2.195,4.883,4.889,4.887      c0.002,0,0.004,0,0.006,0c0.488,0,0.975,0.156,1.377,0.459c1.01,0.756,1.215,2.188,0.457,3.197      C53.635,55.117,52.949,55.433,52.254,55.433z" fill="#F16A6D"/><path d="M59.443,62.601c0,0,0,0-0.002,0c-1.261-0.002-2.284-1.024-2.282-2.286      c0.003-2.688-2.194-4.878-4.899-4.886c-1.262-0.002-2.282-1.026-2.278-2.29c0.004-1.26,1.025-2.279,2.284-2.279      c0.002,0,0.004,0,0.006,0c5.221,0.014,9.463,4.256,9.457,9.459C61.729,61.58,60.705,62.601,59.443,62.601z" fill="#F16A6D"/><path d="M66.613,69.789c-2.539,0-4.912-0.982-6.697-2.766c-1.785-1.784-2.769-4.159-2.769-6.689      c-0.002-1.262,1.021-2.284,2.282-2.284c0.002,0,0.002,0,0.002,0c1.262,0,2.285,1.022,2.285,2.284      c0,1.309,0.508,2.536,1.43,3.457s2.146,1.428,3.451,1.428c0.002,0,0.002,0,0.004,0l0.02,4.57      C66.619,69.789,66.615,69.789,66.613,69.789z" fill="#F16A6D"/><path d="M73.809,76.963h-0.002c-1.26,0-2.283-1.025-2.281-2.287c0-2.689-2.201-4.883-4.908-4.887      c-1.261-0.002-2.281-1.027-2.279-2.289s1.024-2.281,2.283-2.281c0.002,0,0.004,0,0.004,0c5.225,0.009,9.471,4.253,9.469,9.459      C76.094,75.939,75.07,76.963,73.809,76.963z" fill="#F16A6D"/><path d="M23.535,26.714c-0.018,0-0.035,0-0.053,0c-5.194-0.025-9.413-4.259-9.413-9.459      c0-1.262,1.021-2.285,2.284-2.285c1.262,0,2.284,1.022,2.284,2.285c0,2.695,2.194,4.889,4.89,4.89c0.002,0,0.004,0,0.006,0      c0.354,0,0.707,0.081,1.027,0.241c1.127,0.565,1.586,1.937,1.021,3.066C25.18,26.252,24.373,26.714,23.535,26.714z" fill="#F16A6D"/><path d="M30.729,33.882c-1.261,0-2.285-1.023-2.285-2.284c0-2.688-2.199-4.88-4.903-4.884      c-1.261-0.002-2.284-1.026-2.28-2.289c0.002-1.26,1.023-2.281,2.284-2.281c0,0,0.002,0,0.004,0      c5.218,0.008,9.464,4.249,9.464,9.453C33.013,32.859,31.992,33.882,30.729,33.882z" fill="#F16A6D"/><path d="M37.9,41.073c-0.047,0-0.096,0-0.144-0.004c-2.479-0.032-4.803-1.009-6.56-2.765      c-1.787-1.786-2.771-4.162-2.771-6.691c0-1.261,1.021-2.284,2.285-2.284c1.261,0,2.284,1.023,2.284,2.284      c0,1.309,0.508,2.536,1.433,3.459c0.921,0.921,2.146,1.429,3.451,1.429c0.002-0.001,0.002-0.002,0.006,0      c0.175,0,0.35,0.02,0.52,0.059c1.229,0.287,2.001,1.517,1.713,2.746C39.872,40.361,38.938,41.073,37.9,41.073z" fill="#F16A6D"/><path d="M45.088,48.241c-1.261,0-2.284-1.023-2.284-2.285c0-2.693-2.198-4.883-4.899-4.883      c-1.263,0-2.284-1.023-2.284-2.285s1.021-2.285,2.284-2.285c5.22,0,9.469,4.241,9.469,9.453      C47.373,47.218,46.352,48.241,45.088,48.241z" fill="#F16A6D"/></g></g></g></g></svg>