<svg xmlns="http://www.w3.org/2000/svg" viewBox="0 0 30 30" width="16" height="16"><path fill="#bae0bd" d="M26,21.5c-1.93,0-3.5-1.57-3.5-3.5c0-0.311,0.054-0.632,0.168-1.012l0.087-0.288l-0.214-0.212 C21.87,15.825,21.5,14.941,21.5,14v-0.5H21c-1.476,0-2.797-0.945-3.289-2.351l-0.214-0.613L16.959,10.9 c-0.58,0.392-1.258,0.6-1.959,0.6s-1.379-0.208-1.959-0.6l-0.538-0.364l-0.214,0.613C11.797,12.555,10.476,13.5,9,13.5H8.5V14 c0,0.941-0.37,1.825-1.041,2.488L7.245,16.7l0.087,0.288C7.446,17.368,7.5,17.689,7.5,18c0,1.93-1.57,3.5-3.5,3.5 S0.5,19.93,0.5,18c0-0.941,0.37-1.825,1.042-2.488L1.757,15.3l-0.088-0.29C1.554,14.633,1.5,14.312,1.5,14 c0-1.249,0.687-2.412,1.793-3.036l0.211-0.119l0.038-0.239C3.711,9.541,4.541,8.71,5.607,8.541l0.239-0.038l0.118-0.21 c0.584-1.036,1.64-1.698,2.824-1.77l0.207-0.013l0.138-0.155C9.62,5.804,10.283,5.5,11,5.5c0.319,0,0.636,0.063,0.94,0.187 l0.313,0.127l0.234-0.243C13.156,4.88,14.048,4.5,15,4.5s1.844,0.38,2.512,1.071l0.234,0.243l0.313-0.127 C18.364,5.563,18.681,5.5,19,5.5c0.717,0,1.38,0.304,1.866,0.855l0.138,0.155l0.207,0.013c1.185,0.072,2.24,0.733,2.824,1.77 l0.118,0.21l0.239,0.038c1.066,0.169,1.896,1,2.065,2.066l0.038,0.239l0.211,0.119C27.812,11.588,28.5,12.751,28.5,14 c0,0.312-0.054,0.633-0.169,1.01l-0.088,0.29l0.215,0.212C29.13,16.175,29.5,17.059,29.5,18C29.5,19.93,27.93,21.5,26,21.5z"/><path fill="#5e9c76" d="M15,5c0.815,0,1.58,0.326,2.153,0.919l0.47,0.486l0.626-0.255C18.493,6.05,18.746,6,19,6 c0.572,0,1.101,0.244,1.492,0.686l0.275,0.311l0.415,0.025c1.014,0.062,1.918,0.628,2.419,1.516l0.237,0.421l0.477,0.076 c0.852,0.135,1.515,0.799,1.651,1.651l0.076,0.477l0.421,0.237C27.41,11.935,28,12.932,28,14c0,0.261-0.047,0.536-0.147,0.866 l-0.175,0.578l0.429,0.424C28.683,16.437,29,17.194,29,18c0,1.654-1.346,3-3,3s-3-1.346-3-3c0-0.261,0.047-0.536,0.147-0.866 l0.175-0.578l-0.429-0.424C22.317,15.563,22,14.806,22,14v-1h-1c-1.263,0-2.395-0.81-2.817-2.016l-0.429-1.226l-1.075,0.728 C16.182,10.822,15.602,11,15,11s-1.182-0.178-1.679-0.513l-1.075-0.728l-0.429,1.226C11.395,12.19,10.263,13,9,13H8v1 c0,0.806-0.317,1.563-0.893,2.132l-0.429,0.424l0.175,0.578C6.953,17.464,7,17.739,7,18c0,1.654-1.346,3-3,3s-3-1.346-3-3 c0-0.806,0.317-1.563,0.893-2.132l0.429-0.424l-0.175-0.578C2.047,14.536,2,14.261,2,14c0-1.068,0.59-2.065,1.539-2.6l0.421-0.237 l0.076-0.477C4.17,9.834,4.834,9.17,5.686,9.035l0.477-0.076L6.4,8.539c0.501-0.888,1.405-1.455,2.419-1.516l0.415-0.025 l0.275-0.311C9.899,6.244,10.428,6,11,6c0.254,0,0.507,0.05,0.752,0.15l0.626,0.255l0.47-0.486C13.42,5.326,14.185,5,15,5 M15,4 c-1.129,0-2.144,0.471-2.871,1.224C11.78,5.082,11.4,5,11,5c-0.896,0-1.692,0.401-2.242,1.024 C7.366,6.109,6.177,6.898,5.529,8.047C4.252,8.25,3.25,9.252,3.047,10.529C1.831,11.215,1,12.504,1,14 c0,0.405,0.078,0.788,0.19,1.156C0.456,15.882,0,16.887,0,18c0,2.209,1.791,4,4,4s4-1.791,4-4c0-0.405-0.078-0.788-0.19-1.156 C8.544,16.118,9,15.113,9,14c1.746,0,3.215-1.126,3.761-2.685C13.4,11.747,14.17,12,15,12s1.6-0.253,2.239-0.685 C17.785,12.874,19.254,14,21,14c0,1.113,0.456,2.118,1.19,2.844C22.078,17.212,22,17.595,22,18c0,2.209,1.791,4,4,4s4-1.791,4-4 c0-1.113-0.456-2.118-1.19-2.844C28.922,14.788,29,14.405,29,14c0-1.496-0.831-2.785-2.047-3.471 c-0.203-1.277-1.204-2.279-2.482-2.481c-0.648-1.149-1.837-1.939-3.229-2.023C20.692,5.401,19.896,5,19,5 c-0.4,0-0.78,0.082-1.129,0.224C17.144,4.471,16.129,4,15,4L15,4z"/><path fill="#c74343" d="M17 7A2 2 0 1 0 17 11A2 2 0 1 0 17 7Z"/><path fill="#ffeea3" d="M8.5 9A1.5 1.5 0 1 0 8.5 12A1.5 1.5 0 1 0 8.5 9Z"/><path fill="#a16a4a" d="M13.5 7A1.5 1.5 0 1 0 13.5 10 1.5 1.5 0 1 0 13.5 7zM23.5 10A1.5 1.5 0 1 0 23.5 13 1.5 1.5 0 1 0 23.5 10z"/><path fill="#ffeea3" d="M24.5 11A1.5 1.5 0 1 0 24.5 14 1.5 1.5 0 1 0 24.5 11zM3.5 16A1.5 1.5 0 1 0 3.5 19 1.5 1.5 0 1 0 3.5 16zM19.5 8A1.5 1.5 0 1 0 19.5 11 1.5 1.5 0 1 0 19.5 8z"/><path fill="#c74343" d="M6 11A2 2 0 1 0 6 15 2 2 0 1 0 6 11zM26 13A1 1 0 1 0 26 15 1 1 0 1 0 26 13z"/><path fill="#f5ce85" d="M4,24.5c-0.827,0-1.5-0.673-1.5-1.5v-2C2.5,14.107,8.107,8.5,15,8.5S27.5,14.107,27.5,21v2 c0,0.827-0.673,1.5-1.5,1.5H4z"/><path fill="#967a44" d="M15,9c6.617,0,12,5.383,12,12v2c0,0.551-0.449,1-1,1H4c-0.551,0-1-0.449-1-1v-2 C3,14.383,8.383,9,15,9 M15,8C7.85,8,2,13.85,2,21v2c0,1.1,0.9,2,2,2h22c1.1,0,2-0.9,2-2v-2C28,13.85,22.15,8,15,8L15,8z"/><path fill="#967a44" d="M10.5 18.5A0.5 0.5 0 1 0 10.5 19.5A0.5 0.5 0 1 0 10.5 18.5Z"/><g><path fill="#967a44" d="M9.5 16.5A0.5 0.5 0 1 0 9.5 17.5A0.5 0.5 0 1 0 9.5 16.5Z"/></g><g><path fill="#967a44" d="M8.5 18.5A0.5 0.5 0 1 0 8.5 19.5A0.5 0.5 0 1 0 8.5 18.5Z"/></g></svg>