<svg width="32" height="32" xmlns="http://www.w3.org/2000/svg">
 <title/>
 <desc/>

 <g>
  <title>background</title>
  <rect fill="none" id="canvas_background" height="402" width="582" y="-1" x="-1"/>
 </g>
 <g>
  <title>Layer 1</title>
  <path id="one-finger-swipe-left" d="m13.13612,7c0.20654,-0.58683 0.76158,-1 1.41388,-1c0.8342,0 1.5,0.67544 1.5,1.50864l0,6.99136l0,2.5l1,0l0,-2.56748l0,-1.94162c0,-0.81468 0.67157,-1.4909 1.5,-1.4909c0.8342,0 1.5,0.6675 1.5,1.4909l0,2.0173l0,1.4918l1,0l0,-1.4918l0,-1.01693c0,-0.82873 0.67157,-1.49127 1.5,-1.49127c0.8342,0 1.5,0.66766 1.5,1.49127l0,1.18689l0,2.32184l1,0l0,-0.25027l0,-2.24333c0,-0.82994 0.67157,-1.5064 1.5,-1.5064c0.8342,0 1.5,0.67444 1.5,1.5064l0,4.7404l0,3.2532c0,4.14214 -3.35787,7.5 -7.5,7.5c-3.75972,-0.00046 -5.99001,-2.05111 -7.75263,-5.01691c-3.91201,-6.58237 -6.71351,-9.59433 -5.62634,-10.68737c1.1106,-1.1166 3.82057,1.3022 5.87897,3.50263l0,-9.79835l-7.05,0l3.25,3.25l-0.75,0.75l-4.5,-4.5l4.5,-4.5l0.75,0.75l-3.25,3.25l7.13612,0l0,0z"/>
 </g>
</svg>