<svg width="15.9" height="32" xmlns="http://www.w3.org/2000/svg">

 <g>
  <title>background</title>
  <rect fill="none" id="canvas_background" height="402" width="582" y="-1" x="-1"/>
 </g>
 <g>
  <title>Layer 1</title>
  <rect fill="#ffffff" x="5.7" width="4" id="Top" height="6"/>
  <rect fill="#ffffff" y="26" x="5.7" width="4" id="Bottom" height="6"/>
  <polygon fill="#ffffff" points="5.7,27 9.7,31 9.7,27 " id="Shadow"/>
  <path fill="#ffffff" id="S" d="m1.1,22.299999c1.4,0.700001 3.6,1.400002 5.8,1.400002c2.4,0 3.7,-1 3.7,-2.6c0,-1.4 -1.1,-2.300001 -3.900001,-3.200001c-3.9,-1.4 -6.4,-3.5 -6.4,-6.9c0,-4 3.3,-7 8.8,-7c2.7,0 4.599999,0.5 5.9,1.2l-1.2,4.2c-0.900001,-0.5 -2.6,-1.099999 -4.8,-1.099999c-2.3,0 -3.4,1.099999 -3.4,2.2c0,1.5 1.3,2.1 4.3,3.3c4.1,1.5 6,3.7 6,6.999999c0,3.900002 -3,7.200001 -9.4,7.200001c-2.7,0 -5.3,-0.700001 -6.6,-1.4l1.2,-4.300001z"/>
 </g>
</svg>