<?xml version="1.0" ?><!DOCTYPE svg  PUBLIC '-//W3C//DTD SVG 1.1//EN'  'http://www.w3.org/Graphics/SVG/1.1/DTD/svg11.dtd'><svg enable-background="new 0 0 91 91" height="91px" id="Layer_1" version="1.1" viewBox="0 0 91 91" width="91px" xml:space="preserve" xmlns="http://www.w3.org/2000/svg" xmlns:xlink="http://www.w3.org/1999/xlink"><g><g><g><g><path d="M39.297,74.451c0,0-10.521,6.598-5.845,11.922c4.112,4.682,10.987,0.702,12.078-4.518l0.157-0.151      l0.157,0.151c1.089,5.22,7.964,9.199,12.076,4.518c4.674-5.324-5.847-11.922-5.847-11.922" fill="#F69B77"/><path d="M37.845,90.7c-2.305,0-4.447-0.983-6.081-2.845c-1.392-1.585-1.974-3.471-1.684-5.456      c0.753-5.158,7.281-9.387,8.022-9.854c1.051-0.657,2.439-0.34,3.099,0.711c0.66,1.053,0.341,2.438-0.71,3.099      c-2.125,1.341-5.622,4.343-5.963,6.696c-0.099,0.675,0.091,1.242,0.614,1.837c1.022,1.167,2.29,1.562,3.762,1.173      c2.083-0.548,3.985-2.553,4.426-4.667c0.093-0.446,0.321-0.854,0.65-1.169l0.159-0.148c0.871-0.829,2.239-0.825,3.104,0.006      l0.157,0.15c0.327,0.313,0.552,0.718,0.645,1.161c0.441,2.112,2.342,4.119,4.422,4.667c1.477,0.389,2.743-0.008,3.767-1.173      c0.521-0.595,0.71-1.16,0.611-1.835c-0.341-2.355-3.84-5.359-5.967-6.7c-1.049-0.66-1.364-2.048-0.704-3.097      c0.662-1.051,2.046-1.366,3.095-0.711c0.743,0.467,7.271,4.695,8.024,9.854c0.29,1.985-0.293,3.871-1.683,5.456      c-2.146,2.442-5.167,3.371-8.287,2.553c-2.2-0.581-4.201-1.977-5.636-3.8c-1.434,1.823-3.438,3.221-5.64,3.8      C39.305,90.604,38.567,90.7,37.845,90.7z" fill="#434B56"/></g><g><path d="M45.688,25.421c-8.706,1.148-15.429,8.576-15.429,17.593c0,9.019,6.723,16.447,15.429,17.594      c8.701-1.147,15.425-8.575,15.425-17.594C61.112,33.997,54.389,26.569,45.688,25.421z" fill="#F69B77"/><path d="M45.688,62.855c-0.099,0-0.195-0.006-0.294-0.017c-9.91-1.309-17.384-9.83-17.384-19.825      c0-9.994,7.474-18.516,17.386-19.82c0.193-0.025,0.391-0.025,0.586,0c9.907,1.305,17.378,9.826,17.378,19.82      c0,9.995-7.471,18.516-17.378,19.823C45.885,62.85,45.786,62.855,45.688,62.855z M45.688,27.692      c-7.537,1.138-13.182,7.674-13.182,15.322c0,7.649,5.646,14.184,13.182,15.327c7.532-1.143,13.178-7.678,13.178-15.327      C58.865,35.366,53.222,28.832,45.688,27.692z" fill="#434B56"/></g><g><path d="M45.688,60.608c-4.43-0.584-8.345-2.8-11.125-6.017c-0.213,0.834-0.333,1.699-0.333,2.59      c0,5.938,4.991,10.834,11.458,11.587c6.464-0.753,11.455-5.649,11.455-11.587c0-0.895-0.121-1.758-0.336-2.59      C54.021,57.809,50.117,60.024,45.688,60.608z" fill="#FFFFFF"/><path d="M45.688,71.016c-0.087,0-0.174-0.004-0.26-0.014c-7.666-0.893-13.445-6.834-13.445-13.82      c0-1.042,0.136-2.101,0.403-3.147c0.207-0.811,0.848-1.438,1.662-1.632c0.813-0.189,1.668,0.088,2.216,0.721      c2.435,2.817,5.771,4.662,9.423,5.216c3.643-0.552,6.979-2.398,9.42-5.218c0.545-0.633,1.398-0.908,2.212-0.719      c0.813,0.192,1.453,0.817,1.662,1.628c0.271,1.049,0.408,2.107,0.408,3.151c0,6.986-5.778,12.926-13.442,13.82      C45.861,71.012,45.774,71.016,45.688,71.016z M36.843,59.595c1.091,3.536,4.521,6.313,8.845,6.909      c4.323-0.596,7.753-3.377,8.845-6.915c-2.549,1.721-5.468,2.841-8.551,3.248c-0.195,0.026-0.393,0.026-0.588,0      C42.308,62.43,39.388,61.312,36.843,59.595z" fill="#434B56"/></g><g><path d="M45.688,68.769c-4.985-0.581-9.079-3.625-10.701-7.705c-0.484,1.214-0.757,2.519-0.757,3.881      c0,5.938,4.991,10.834,11.458,11.589c6.464-0.755,11.455-5.651,11.455-11.589c0-1.362-0.272-2.667-0.756-3.881      C54.761,65.144,50.671,68.188,45.688,68.769z" fill="#F69B77"/><path d="M45.688,78.78c-0.087,0-0.174-0.004-0.262-0.014c-7.664-0.896-13.443-6.84-13.443-13.822      c0-1.603,0.308-3.188,0.917-4.715c0.341-0.854,1.167-1.413,2.086-1.413c0.002,0,0.002,0,0.002,0      c0.921,0,1.748,0.562,2.088,1.417c1.304,3.284,4.666,5.725,8.61,6.271c3.94-0.546,7.302-2.986,8.61-6.272      c0.341-0.855,1.169-1.415,2.089-1.415c0,0,0,0,0.002,0c0.919,0,1.745,0.562,2.086,1.417c0.607,1.527,0.915,3.112,0.915,4.711      c0,6.982-5.778,12.926-13.44,13.822C45.861,78.776,45.774,78.78,45.688,78.78z M36.839,67.342      c1.086,3.542,4.519,6.329,8.849,6.927c4.329-0.6,7.761-3.387,8.847-6.929c-2.314,1.973-5.295,3.276-8.585,3.662      c-0.175,0.02-0.349,0.02-0.521,0C42.134,70.616,39.154,69.313,36.839,67.342z" fill="#434B56"/></g><path d="M45.422,26.405c-1.24,0-2.247-1.006-2.247-2.247c0-13.565-8.651-18.305-8.738-18.351     c-1.095-0.581-1.513-1.941-0.933-3.039c0.581-1.096,1.939-1.516,3.039-0.933c0.453,0.24,11.126,6.083,11.126,22.323     C47.669,25.398,46.663,26.405,45.422,26.405z" fill="#434B56"/><path d="M45.951,26.405c-1.241,0-2.248-1.006-2.248-2.247c0-16.24,10.673-22.083,11.128-22.323     c1.098-0.583,2.458-0.163,3.039,0.933c0.578,1.093,0.164,2.448-0.924,3.033c-0.375,0.205-8.75,4.945-8.75,18.357     C48.197,25.398,47.191,26.405,45.951,26.405z" fill="#434B56"/><path d="M29.192,41.586c-0.225,0-0.453-0.033-0.68-0.104c-0.772-0.246-7.612-2.545-9.551-7.825     c-0.428-1.165,0.168-2.458,1.333-2.886c1.161-0.428,2.456,0.168,2.885,1.335c1.009,2.744,5.274,4.641,6.689,5.09     c1.185,0.374,1.838,1.638,1.465,2.82C31.031,40.974,30.146,41.586,29.192,41.586z" fill="#434B56"/><g><path d="M20.578,18.928c0,0,1.753-12.038-1.753-16.481c0,0-11.804,5.262-11.804,17.064      c0,11.806,13.993,13.441,13.993,13.441s9.033-5.611,9.033-12.739s-5.731-9.232-5.731-9.232L20.578,18.928z" fill="#F69B77"/><path d="M21.013,35.199c-0.085,0-0.172-0.004-0.259-0.016c-5.527-0.645-15.982-4.751-15.982-15.673      c0-13.11,12.601-18.877,13.137-19.116c0.941-0.418,2.042-0.147,2.679,0.66c1.564,1.98,2.272,4.999,2.543,8.018      c0.571-0.354,1.287-0.447,1.959-0.201c0.294,0.108,7.203,2.743,7.203,11.341c0,8.284-9.681,14.392-10.093,14.649      C21.842,35.083,21.431,35.199,21.013,35.199z M17.913,5.504c-3.009,1.872-8.645,6.396-8.645,14.006      c0,8.303,8.552,10.575,11.235,11.084c2.527-1.772,7.294-6.017,7.294-10.381c0-3.101-1.339-4.964-2.516-6.001l-2.669,5.674      c-0.472,1.006-1.614,1.516-2.679,1.194c-1.066-0.319-1.738-1.372-1.579-2.474C18.875,15.011,19.097,8.95,17.913,5.504z" fill="#434B56"/></g><path d="M62.177,41.586c-0.954,0-1.839-0.612-2.143-1.57c-0.373-1.182,0.281-2.444,1.462-2.82     c1.522-0.489,5.689-2.357,6.694-5.09c0.428-1.165,1.721-1.761,2.884-1.335c1.165,0.428,1.763,1.721,1.335,2.886     c-1.941,5.28-8.778,7.579-9.553,7.825C62.63,41.553,62.401,41.586,62.177,41.586z" fill="#434B56"/><g><path d="M70.791,18.928c0,0-1.751-12.038,1.756-16.481c0,0,11.804,5.262,11.804,17.064      c0,11.806-13.997,13.441-13.997,13.441s-9.028-5.611-9.028-12.739s5.729-9.232,5.729-9.232L70.791,18.928z" fill="#F69B77"/><path d="M70.354,35.199c-0.416,0-0.828-0.116-1.184-0.339c-0.413-0.255-10.092-6.363-10.092-14.647      c0-8.599,6.907-11.233,7.202-11.341c0.671-0.246,1.39-0.153,1.96,0.201c0.271-3.019,0.978-6.038,2.541-8.018      c0.639-0.807,1.742-1.078,2.681-0.66C73.998,0.633,86.598,6.4,86.598,19.511c0,10.921-10.455,15.028-15.982,15.673      C70.528,35.195,70.441,35.199,70.354,35.199z M66.092,14.218c-1.176,1.043-2.52,2.909-2.52,5.996      c0,4.39,4.765,8.618,7.291,10.381c2.681-0.507,11.24-2.779,11.24-11.084c0-7.548-5.649-12.107-8.649-13.995      c-1.187,3.449-0.96,9.501-0.439,13.089c0.161,1.102-0.509,2.156-1.575,2.476c-1.064,0.323-2.208-0.188-2.681-1.194      L66.092,14.218z" fill="#434B56"/></g></g></g></g></svg>