<?xml version="1.0" ?><!DOCTYPE svg  PUBLIC '-//W3C//DTD SVG 1.1//EN'  'http://www.w3.org/Graphics/SVG/1.1/DTD/svg11.dtd'><svg enable-background="new 0 0 91 91" height="91px" id="Layer_1" version="1.1" viewBox="0 0 91 91" width="91px" xml:space="preserve" xmlns="http://www.w3.org/2000/svg" xmlns:xlink="http://www.w3.org/1999/xlink"><g><g><g><path d="M62.954,76.029c4.35-7.582,3.971-17.945-0.974-26.406c-0.19-0.366-4.148-8.14-5.724-16.494     c-0.151-0.807-0.262-1.828-0.389-3.007c-0.732-6.809-1.958-18.201-13.994-19.111c-0.014-0.002-0.044-0.006-0.078-0.008h-0.002     c-0.136-0.014-3.628,0.245-3.628,0.245c-4.372,0.838-11.482,4.104-14.378,16.276c-0.053,0.35-1.65,10.127-6.649,18.289     c-4.277,6.991-7.228,21.978-1.646,31.936c3.604,6.432,10.1,9.693,19.301,9.693l0.212,0.002c1.388,0.111,2.761,0.169,4.079,0.169     c0,0,0.004,0,0.006,0C50.191,87.612,58.666,83.499,62.954,76.029z" fill="#ACD263"/><path d="M72.679,46.1c-2.85-4.632-4.831-9.6-7.337-15.889c-1.299-3.254-2.769-6.944-4.563-11.076     c-2.959-6.824-9.042-8.391-13.463-8.554c8.479,3.535,9.59,13.555,10.214,19.359c0.125,1.147,0.229,2.137,0.369,2.877     c1.532,8.121,5.506,15.922,5.545,16.002c5.218,8.927,5.604,19.95,0.959,28.041c-2.868,4.999-7.45,8.598-13.339,10.596     c12.048-1.028,20.146-4.939,24.159-11.719C80.865,66.212,76.793,52.794,72.679,46.1z" fill="#85986F"/></g><g><path d="M39.341,90.706c-0.002,0-0.002,0-0.004,0c-1.371,0-2.793-0.059-4.232-0.172h-0.058     c-12.959,0-19.116-6.129-22-11.273c-6.439-11.489-2.788-27.715,1.707-35.062c4.664-7.619,6.229-17.129,6.244-17.225l0.033-0.167     C25.213,9.238,37.51,7.873,41.179,7.873c0.628,0,1.056,0.037,1.225,0.054c14.563,1.13,16.07,15.131,16.793,21.864     c0.121,1.116,0.224,2.078,0.353,2.765c1.433,7.586,5.055,14.897,5.391,15.566c5.459,9.388,5.832,20.939,0.951,29.447     C61.028,86.04,51.599,90.706,39.341,90.706z M35.278,86.019l0.095,0.008c1.351,0.108,2.685,0.163,3.964,0.163     c0.002,0,0.004,0,0.006,0c13.548,0.002,19.786-5.91,22.631-10.867c4.103-7.148,3.721-16.955-0.968-24.982l-0.061-0.108     c-0.171-0.333-4.221-8.284-5.834-16.84c-0.162-0.863-0.274-1.907-0.404-3.117c-0.928-8.616-2.67-17.09-12.688-17.847     l-0.109-0.012c-0.043-0.004-0.307-0.029-0.733-0.029c-3.624,0-12.399,1.501-15.736,15.388c-0.185,1.104-1.892,10.704-6.837,18.78     c-4.094,6.692-6.935,21.015-1.619,30.497c3.336,5.951,9.411,8.969,18.061,8.969L35.278,86.019z" fill="#434B56"/><g><path d="M40.199,40.188c6.793,8.13,15.899,30.588-3.74,30.013c-18.038-0.534-10.325-22.157,0.233-30.629      C36.691,39.572,37.922,37.468,40.199,40.188z" fill="#FAE58F"/><path d="M37.189,72.47c-0.263,0-0.525-0.004-0.797-0.014c-8.142-0.239-11.198-4.31-12.328-7.683      c-2.766-8.253,3.527-20.635,10.971-26.765c0.599-0.749,1.635-1.472,2.977-1.472c1.378,0,2.696,0.741,3.919,2.203      c4.538,5.432,11.394,19.039,7.495,27.38C48.07,69.018,44.849,72.47,37.189,72.47z M38.155,41.298l-0.05,0.033      c-6.94,5.57-11.684,16.265-9.759,22.008c0.979,2.924,3.73,4.473,8.179,4.605c4.66,0.126,7.572-1.087,8.811-3.737      C48,58.508,43.13,47.22,38.467,41.636C38.348,41.495,38.245,41.384,38.155,41.298z" fill="#434B56"/></g><path d="M44.522,90.838c-1.672,0-3.395-0.043-5.175-0.13c-1.246-0.063-2.207-1.122-2.144-2.366     c0.062-1.246,1.145-2.205,2.366-2.145c18.094,0.893,29.766-2.871,34.687-11.183c5.319-8.985,1.397-21.77-2.535-28.17     c-2.914-4.738-4.915-9.755-7.446-16.109c-1.295-3.245-2.761-6.923-4.545-11.035c-4.366-10.065-16.518-7.442-17.035-7.324     c-1.207,0.274-2.424-0.484-2.702-1.699c-0.278-1.213,0.477-2.42,1.689-2.702c5.619-1.301,17.491-0.902,22.188,9.927     c1.813,4.174,3.291,7.887,4.598,11.161c2.452,6.151,4.388,11.009,7.099,15.415c3.878,6.313,9.405,21.296,2.573,32.836     C72.821,86.299,61.523,90.838,44.522,90.838z" fill="#434B56"/><path d="M39.266,17.623c-1.182,0-2.175-0.919-2.251-2.115c-0.49-7.777,1.376-11.604,2.174-13.242     c0.048-0.099,0.093-0.187,0.126-0.26c0.226-1.009,1.128-1.766,2.205-1.766c1.246,0,2.257,1.011,2.257,2.259     c0,0.659-0.245,1.163-0.529,1.746c-0.642,1.314-2.143,4.392-1.726,10.979c0.08,1.244-0.867,2.317-2.111,2.395     C39.363,17.623,39.314,17.623,39.266,17.623z" fill="#434B56"/></g></g></g></svg>